<svg viewBox="0 0 1200 800" xmlns="http://www.w3.org/2000/svg">
  <path d="M1179.1,392c-0.2-3-0.5-5.9-0.8-8.9c0-0.7-0.1-1.4-0.2-2c-0.1-1.1-0.2-2.1-0.4-3.2c-0.1-1-0.2-2-0.4-3.1
    c-0.1-0.7-0.2-1.4-0.3-2.1c-0.1-1-0.3-2-0.4-3c-0.1-1.1-0.3-2.2-0.5-3.3c-0.1-0.7-0.2-1.4-0.3-2.1c-0.3-1.8-0.5-3.5-0.8-5.3
    c-0.2-1.3-0.4-2.5-0.6-3.8c0-0.3-0.1-0.6-0.1-0.9c-0.2-1.5-0.5-3-0.7-4.4c-0.1-0.6-0.2-1.2-0.3-1.8c-0.2-1.3-0.4-2.5-0.6-3.8
    c-0.1-0.9-0.3-1.8-0.4-2.7c-0.1-0.6-0.2-1.2-0.3-1.8c-0.3-1.7-0.6-3.4-0.9-5.1c-0.2-1.1-0.3-2.1-0.5-3.2c-0.1-0.5-0.2-1.1-0.3-1.6
    c-0.2-1.4-0.5-2.8-0.7-4.2c-0.1-0.8-0.3-1.5-0.4-2.3c-0.2-1-0.3-2-0.5-3c-0.2-1.2-0.4-2.3-0.6-3.5c-0.1-0.5-0.2-1-0.2-1.5
    c-5.3-31.8-15.9-61.9-31.1-89.1c-0.4-0.7-0.8-1.5-1.2-2.2c-0.9-1.7-1.9-3.4-2.9-5.1c-0.4-0.8-0.9-1.5-1.3-2.3
    c-2.1-3.7-4.4-7.3-6.7-10.9c-0.5-0.7-0.9-1.4-1.4-2.1c-1.1-1.6-2.1-3.1-3.2-4.7c-0.5-0.7-1-1.4-1.5-2.2c-2.4-3.3-4.8-6.6-7.3-9.8
    c-0.5-0.6-1-1.2-1.4-1.7c-1.1-1.3-2.2-2.7-3.3-4c-0.5-0.6-1.1-1.3-1.6-1.9c-2.5-2.9-5.1-5.7-7.7-8.5c-0.5-0.5-1-1-1.5-1.5
    c-1.2-1.2-2.4-2.4-3.5-3.6c-0.6-0.6-1.1-1.1-1.7-1.7c-2.6-2.5-5.2-5-7.9-7.4c-0.5-0.4-0.9-0.8-1.4-1.2c-1.2-1.1-2.5-2.1-3.7-3.2
    c-0.6-0.5-1.2-1-1.8-1.5c-2.7-2.2-5.4-4.3-8.2-6.4c-0.4-0.3-0.9-0.6-1.3-1c-1.3-1-2.7-1.9-4-2.9c-0.6-0.4-1.2-0.9-1.9-1.3
    c-2.8-1.9-5.6-3.8-8.4-5.5c-0.4-0.2-0.7-0.5-1.1-0.7c-1.4-0.9-2.9-1.7-4.3-2.6c-0.6-0.4-1.3-0.7-1.9-1.1c-2.8-1.6-5.7-3.2-8.6-4.7
    c-0.2-0.1-0.5-0.2-0.7-0.4c-1.5-0.8-3.1-1.5-4.6-2.3c-0.7-0.3-1.3-0.6-2-0.9c-2.9-1.3-5.9-2.6-8.9-3.9c-0.2-0.1-0.4-0.1-0.5-0.2
    c-1.6-0.6-3.2-1.2-4.8-1.8c-0.7-0.2-1.3-0.5-2-0.7c-3-1.1-6.1-2.1-9.2-3c-0.1,0-0.1,0-0.2-0.1c-1.6-0.5-3.3-1-5-1.5
    c-0.7-0.2-1.3-0.4-2-0.5c-3.2-0.9-6.4-1.7-9.6-2.4c-0.1,0-0.2,0-0.3-0.1c-1.6-0.4-3.2-0.7-4.9-1c-0.7-0.1-1.4-0.3-2.1-0.4
    c-3.3-0.6-6.6-1.1-9.9-1.6c-0.1,0-0.3,0-0.4,0c-1.6-0.2-3.3-0.4-4.9-0.6c-0.7-0.1-1.4-0.2-2.1-0.2c-3.4-0.3-6.9-0.6-10.4-0.8
    c-0.2,0-0.4,0-0.6,0c-1.7-0.1-3.4-0.2-5.1-0.2c-0.7,0-1.4-0.1-2.1-0.1c-3.6-0.1-7.3-0.1-10.9-0.1l-2.1,0h-12l2.2,4.4h-25.9l-1.9-1.9
    h-1.2h-45.5l-2,1.2l-31.8-5.3h-20.8l-9.4,1.9H780l-20.3,6.3h-10.7l2.5-6.3h-34.6l2.5,1.9h-13.2l-2.5,4.4l-1.9-3.8h-15.1l-1.9,5.7
    h-8.2l-8.8-7.5h-36.5l2.5,7.5h-4.4l-1.3-3.8h-11.3l-3.8,3.8h-6.9l-6.3-3.8h-43.4l-11.3,3.8h-8.8l3.8-5h-13.2l-12.6,5l-2.5-5h-26.4
    l-6.3,5h-5.7l-1.9-3.1h-11.9l-10.1,3.1h-12.6l-6.3-3.1h-29.6h-7.5l-5,3.1h-7.5l-20.8-3.1h-52.8l-5,3.1h-22.7l-21.4-3.1h-11.3
    l-3.8,5.7h-22.7l-12.6-10.1h-16.4l-13.8,10.1h-7.5l-8.8-5h-41.5l-5,5h-20.1l-1.3-5h-8.8l-13.8,3.1l-3.8-5.7h-22.7h-8.8h-8.8
    l-5,6.9h-7.5l-8.8-6.9l-1.9,6.9h-16.4l-2.5-6.9h-5l3.8,12.6l-17.6,5.7l-3.8,5H31.2l1.3,6.3H16.1l-1.3,8.8l20.1,1.3l1.3,5H20.5
    l-1.3,6.3l10.1,10.1l-8.8,1.3l-3.8,11.3h7.5l15.1,5.7l-3.8,12.6H20.5l16.4,10.1l2.5,10.1H52l-3.8,10.1l8.8,2.5l-7.5,7.5l3.8,16.4
    l7.5-2.5l1.3,8.8l-13.8,12.6l3.8,12.6l-7.5,5l3.8,11.3l-11.3,17.6l13.8,7.5l-3.8,11.3l-13.8,6.3l5,26.4l13.8,3.8l-6.3,10.1
    l10.1,16.4l15.1-7.5l3.8,5l10.1-3.8l-1.3,8.8l8.8,5l3.8-10.1l16.4,8.8l-1.3,12.6l10.1,10.1l-10.1,5.7l-8.8-10.1v-6.3l-13.8,1.3
    l10.1,11.3l-7.5,10.1l3.8,10.1l-8.8,6.3l13.8,11.3l-8.8,8.8l5,6.3l-10.1,3.8l1.3,8.8l-7.5,2.5l3.8,8.8l-8.8,1.3l3.8,8.8l-8.8,5
    l6.3,7.5l12.6,1.3l8.8,8.8h16.4l7.5,8.8l35.2,2.5l7.5,6.3l11.3-3.8l7.5,5h22.7l5,5h23.9l-12.6-5h57.9l5-5h18.9l10.1-5h15.1
    l12.6,5l6.3-5h33.9l6.3,5h26.4l5-5h23.9l8.8,5h27.7l8.8-3.8h10.1l8.8,3.8h31.4l12.6-3.8h32.7l17.6,3.8h42.8h24l-10.3-4.4h35.9
    l7.5,4.4h42.2h39.6l9.5-3.1l8.8,3.1h11.9h9.4l2.5-3.1h12.6h46.5l3.1,4.4h18.9l13.8-4.4l5,4.4h56.6l15.1-4.4l5,5.7l10.1-11.9h26.4
    l6.3,10.6h31.8l3.1-5h28.3l10-5.6l16.4,3.1l-3.1,7.5h29.5l-5-10.7h14.5l8.8,5h11.3l2.5-5h8.8l2.5,5h8.8l2.5-5h13.2l5.7,9.4h10.7
    l-6.3-6.3h12.6l4.4,4.4l6.9-10.7h5.7l-2.5,10.7l6.9,4.4h5.7l0.6-8.8h3.8l-2.5,3.1l5,4.4h3.8l21.4-18.9l13.2,2.5l8.2-16.4l-2.5-1.9
    l3.8-11.3h13.2l3.1,5l3.8-3.1l7.5,5.7l2.5-5.7l15.1,10.1l7.5-10.1v-12.6l5.7-5.7l-7.5-13.2v-12.6l-5-7.5l5-10.7l-7.5-5.7l7.5-13.2
    l-3.8-11.3l3.8-15.1l10.1-7.5l-8.8-10.1l7.5-10.1l-6.3-10.1l11.3-21.4l-6.3-20.1l-10.1-5l-7.5-30.2l21.4-1.3l5-17.6l-10.1-16.4
    l12.6-17.6l-15.1-5l7.5-16.4l-6.3-26.4l-8.8-8.8h-11.3l1.3-12.6l-7.5-8.8l13.8-15.1l-17.6-13.8l3.8-15.1h13.8l11.3-11.3
    C1180.8,414.4,1180.5,403.3,1179.1,392z M894.1,634.5l-3.8,1.3l-7.5-2.5l-1.3-6.3l-5-5l6.3-2.5l7.5,5l5,5L894.1,634.5z
     M880.3,576.7l-17.6,6.3l-6.3-3.8l10.1-12.6l16.4-3.8l-3.8,8.8L880.3,576.7z M901.6,533.9l-20.1,3.8l-1.3-8.8l26.4,1.3l5-3.8h11.3
    l3.8,5l-11.3,5L901.6,533.9z M925.5,502.4l-5,3.8l-6.3-3.8l2.5-5l6.3-2.5l5,2.5L925.5,502.4z" fill="#ffffff"/>
</svg>